<svg width="131" height="48" viewBox="0 0 131 48" fill="none" xmlns="http://www.w3.org/2000/svg">
<path d="M47.1091 26V30.56H53.5374C54.1381 30.56 54.5119 30.64 54.6588 30.8C54.819 30.9467 54.8991 31.32 54.8991 31.92V35.2C54.8991 35.8 54.819 36.18 54.6588 36.34C54.5119 36.4867 54.1381 36.56 53.5374 36.56H47.1091V45.94C47.1091 46.54 47.029 46.92 46.8688 47.08C46.722 47.2267 46.3481 47.3 45.7474 47.3H41.3617C40.761 47.3 40.3805 47.2267 40.2203 47.08C40.0734 46.92 40 46.54 40 45.94V21.36C40 20.76 40.0734 20.3867 40.2203 20.24C40.3805 20.08 40.761 20 41.3617 20H54.2983C54.8991 20 55.2729 20.08 55.4198 20.24C55.58 20.3867 55.6601 20.76 55.6601 21.36V24.64C55.6601 25.24 55.58 25.62 55.4198 25.78C55.2729 25.9267 54.8991 26 54.2983 26H47.1091Z" fill="white"/>
<path d="M66.3557 21.3728V45.94C66.3557 46.54 66.2756 46.92 66.1154 47.08C65.9685 47.2267 65.5947 47.3 64.9939 47.3H61.149C60.5482 47.3 60.1677 47.2267 60.0075 47.08C59.8607 46.92 59.7873 46.54 59.7873 45.94V21.3728C59.7873 20.7728 59.8607 20.3995 60.0075 20.2528C60.1677 20.0928 60.5482 20.0128 61.149 20.0128H64.9939C65.5947 20.0128 65.9685 20.0928 66.1154 20.2528C66.2756 20.3995 66.3557 20.7728 66.3557 21.3728Z" fill="white"/>
<path d="M84.0459 45.24C82.6441 47.0133 80.735 47.9 78.3186 47.9C76.7566 47.9 75.268 47.5067 73.8528 46.72C72.2775 45.84 71.0559 44.6333 70.1881 43.1C69.3471 41.6067 68.9265 39.9 68.9265 37.98C68.9265 34.82 70.0279 32.2933 72.2308 30.4C73.9797 28.8933 75.9889 28.14 78.2585 28.14C79.46 28.14 80.5214 28.3333 81.4426 28.72C82.3771 29.1067 83.2449 29.72 84.0459 30.56V30.1C84.0459 29.5 84.126 29.1267 84.2862 28.98C84.4464 28.82 84.8269 28.74 85.4277 28.74H89.2526C89.8534 28.74 90.2272 28.82 90.374 28.98C90.5342 29.1267 90.6143 29.5 90.6143 30.1V45.94C90.6143 46.54 90.5342 46.92 90.374 47.08C90.2272 47.2267 89.8534 47.3 89.2526 47.3H85.4277C84.8269 47.3 84.4464 47.2267 84.2862 47.08C84.126 46.92 84.0459 46.54 84.0459 45.94V45.24ZM80.0007 33.8C78.8259 33.8 77.8246 34.2133 76.9969 35.04C76.1691 35.8667 75.7553 36.8733 75.7553 38.06C75.7553 39.18 76.1691 40.16 76.9969 41C77.8112 41.8267 78.8125 42.24 80.0007 42.24C81.1756 42.24 82.1768 41.8267 83.0046 41C83.8323 40.1733 84.2462 39.18 84.2462 38.02C84.2462 36.8333 83.8323 35.84 83.0046 35.04C82.1501 34.2133 81.1489 33.8 80.0007 33.8Z" fill="white"/>
<path d="M107.789 30.56L106.848 32.36C106.648 32.7467 106.487 33 106.367 33.12C106.26 33.2267 106.107 33.28 105.907 33.28C105.813 33.28 105.686 33.2533 105.526 33.2C104.351 32.8133 103.41 32.62 102.703 32.62C102.102 32.62 101.608 32.7467 101.221 33C100.847 33.24 100.66 33.5533 100.66 33.94C100.66 34.3533 100.84 34.66 101.201 34.86C101.574 35.0467 102.375 35.2667 103.604 35.52C107.208 36.24 109.011 38.0733 109.011 41.02C109.011 43.3 108.103 45.08 106.287 46.36C104.725 47.4533 102.696 48 100.199 48C97.8764 48 95.7603 47.4867 93.8512 46.46C93.3038 46.1667 93.0302 45.86 93.0302 45.54C93.0302 45.38 93.1436 45.08 93.3706 44.64L94.472 42.5C94.6723 42.1 94.8325 41.8467 94.9526 41.74C95.0728 41.62 95.2397 41.56 95.4533 41.56C95.5868 41.56 96.054 41.7733 96.8551 42.2C97.3223 42.4533 97.9098 42.6733 98.6173 42.86C99.3382 43.0333 99.9457 43.12 100.44 43.12C101 43.12 101.468 42.98 101.841 42.7C102.229 42.42 102.422 42.0733 102.422 41.66C102.422 41.22 102.235 40.8867 101.861 40.66C101.488 40.4333 100.74 40.2 99.6186 39.96C98.0566 39.64 96.8818 39.22 96.0941 38.7C94.8124 37.8467 94.1716 36.5533 94.1716 34.82C94.1716 32.8733 94.8592 31.28 96.2343 30.04C97.6628 28.7333 99.7254 28.08 102.422 28.08C104.558 28.08 106.287 28.3667 107.609 28.94C107.956 29.1 108.13 29.3333 108.13 29.64C108.13 29.8267 108.016 30.1333 107.789 30.56Z" fill="white"/>
<path d="M117.963 31.08C118.724 30.2 119.425 29.58 120.066 29.22C121.121 28.62 122.402 28.32 123.911 28.32C126.167 28.32 127.956 29 129.278 30.36C130.065 31.16 130.566 32.0333 130.78 32.98C130.927 33.6467 131 34.48 131 35.48V45.94C131 46.54 130.92 46.92 130.76 47.08C130.613 47.2267 130.239 47.3 129.638 47.3H125.793C125.193 47.3 124.812 47.2267 124.652 47.08C124.505 46.92 124.432 46.54 124.432 45.94V37.9C124.432 36.4733 124.298 35.5 124.031 34.98C123.817 34.54 123.464 34.1933 122.97 33.94C122.489 33.6733 121.968 33.54 121.408 33.54C120.26 33.54 119.345 33.9533 118.664 34.78C118.197 35.3533 117.963 36.2133 117.963 37.36V45.94C117.963 46.54 117.883 46.92 117.723 47.08C117.576 47.2267 117.202 47.3 116.602 47.3H112.757C112.156 47.3 111.775 47.2267 111.615 47.08C111.468 46.92 111.395 46.54 111.395 45.94V21.3728C111.395 20.7728 111.468 20.3995 111.615 20.2528C111.775 20.0928 112.156 20.0128 112.757 20.0128H116.602C117.202 20.0128 117.576 20.0928 117.723 20.2528C117.883 20.3995 117.963 20.7728 117.963 21.3728V31.08Z" fill="white"/>
<path d="M65.8756 21.3728V45.94C65.8756 46.54 65.7955 46.92 65.6353 47.08C65.4885 47.2267 65.1147 47.3 64.5139 47.3H60.669C60.0682 47.3 59.6877 47.2267 59.5275 47.08C59.3806 46.92 59.3072 46.54 59.3072 45.94V21.3728C59.3072 20.7728 59.3806 20.3995 59.5275 20.2528C59.6877 20.0928 60.0682 20.0128 60.669 20.0128H64.5139C65.1147 20.0128 65.4885 20.0928 65.6353 20.2528C65.7955 20.3995 65.8756 20.7728 65.8756 21.3728Z" fill="white"/>
<path d="M21.9785 2.16415C22.2538 0.236721 19.8116 -0.798735 18.6437 0.750292L0.385568 24.968C-0.551312 26.2107 0.325588 28 1.87148 28H9.73499C10.3817 28 10.9303 27.5199 11.0227 26.873L11.9739 20.2141C12.1066 19.2853 12.8942 18.596 13.8228 18.596H18.5046C19.1514 18.596 19.6999 18.1159 19.7924 17.469L21.9785 2.16415Z" fill="url(#paint0_linear_79_6)"/>
<path d="M10.0215 45.8359C9.74615 47.7633 12.1884 48.7987 13.3563 47.2497L31.6144 23.032C32.5513 21.7893 31.6744 20 30.1285 20H22.265C21.6183 20 21.0697 20.4801 20.9773 21.127L20.0261 27.7859C19.8934 28.7147 19.1058 29.404 18.1772 29.404H13.4954C12.8486 29.404 12.3001 29.8841 12.2076 30.531L10.0215 45.8359Z" fill="url(#paint1_linear_79_6)"/>
<defs>
<linearGradient id="paint0_linear_79_6" x1="9.36281" y1="14.0231" x2="17.644" y2="21.6098" gradientUnits="userSpaceOnUse">
<stop stop-color="#6F43F5"/>
<stop offset="1" stop-color="#133AC5"/>
</linearGradient>
<linearGradient id="paint1_linear_79_6" x1="23.5542" y1="34.0772" x2="14.4859" y2="22.415" gradientUnits="userSpaceOnUse">
<stop stop-color="#7CFA73"/>
<stop offset="1" stop-color="#00CFB6"/>
</linearGradient>
</defs>
</svg>
